<svg width="176" height="27" viewBox="0 0 176 27" fill="none" xmlns="http://www.w3.org/2000/svg">
<path d="M5.55859 0.40625V26H0.285156V0.40625H5.55859ZM15.7539 11.3398V15.4531H4.11719V11.3398H15.7539ZM16.9844 0.40625V4.53711H4.11719V0.40625H16.9844ZM37.2168 21.8867V26H23.5938V21.8867H37.2168ZM25.3164 0.40625V26H20.043V0.40625H25.3164ZM35.4414 10.8301V14.8379H23.5938V10.8301H35.4414ZM37.1992 0.40625V4.53711H23.5938V0.40625H37.1992ZM61.123 0.40625V26H55.8496L45.5664 8.84375V26H40.293V0.40625H45.5664L55.8672 17.5801V0.40625H61.123ZM73.5684 26H67.9961L68.0312 21.8867H73.5684C74.9512 21.8867 76.1172 21.5762 77.0664 20.9551C78.0156 20.3223 78.7305 19.4023 79.2109 18.1953C79.7031 16.9883 79.9492 15.5293 79.9492 13.8184V12.5703C79.9492 11.2578 79.8086 10.1035 79.5273 9.10742C79.2578 8.11133 78.8535 7.27344 78.3145 6.59375C77.7754 5.91406 77.1133 5.4043 76.3281 5.06445C75.543 4.71289 74.6406 4.53711 73.6211 4.53711H67.8906V0.40625H73.6211C75.332 0.40625 76.8965 0.699219 78.3145 1.28516C79.7441 1.85938 80.9805 2.68555 82.0234 3.76367C83.0664 4.8418 83.8691 6.13086 84.4316 7.63086C85.0059 9.11914 85.293 10.7773 85.293 12.6055V13.8184C85.293 15.6348 85.0059 17.293 84.4316 18.793C83.8691 20.293 83.0664 21.582 82.0234 22.6602C80.9922 23.7266 79.7559 24.5527 78.3145 25.1387C76.8848 25.7129 75.3027 26 73.5684 26ZM70.9844 0.40625V26H65.7109V0.40625H70.9844Z" fill="white"/>
<path d="M108.197 0.40625V26H104.857V0.40625H108.197ZM116.424 0.40625V3.18359H96.6484V0.40625H116.424ZM123.262 6.98047V26H119.992V6.98047H123.262ZM119.746 1.93555C119.746 1.4082 119.904 0.962891 120.221 0.599609C120.549 0.236328 121.029 0.0546875 121.662 0.0546875C122.283 0.0546875 122.758 0.236328 123.086 0.599609C123.426 0.962891 123.596 1.4082 123.596 1.93555C123.596 2.43945 123.426 2.87305 123.086 3.23633C122.758 3.58789 122.283 3.76367 121.662 3.76367C121.029 3.76367 120.549 3.58789 120.221 3.23633C119.904 2.87305 119.746 2.43945 119.746 1.93555ZM131.717 10.7598V26H128.447V6.98047H131.541L131.717 10.7598ZM131.049 15.7695L129.537 15.7168C129.549 14.416 129.719 13.2148 130.047 12.1133C130.375 11 130.861 10.0332 131.506 9.21289C132.15 8.39258 132.953 7.75977 133.914 7.31445C134.875 6.85742 135.988 6.62891 137.254 6.62891C138.145 6.62891 138.965 6.75781 139.715 7.01562C140.465 7.26172 141.115 7.6543 141.666 8.19336C142.217 8.73242 142.645 9.42383 142.949 10.2676C143.254 11.1113 143.406 12.1309 143.406 13.3262V26H140.154V13.4844C140.154 12.4883 139.984 11.6914 139.645 11.0938C139.316 10.4961 138.848 10.0625 138.238 9.79297C137.629 9.51172 136.914 9.37109 136.094 9.37109C135.133 9.37109 134.33 9.54102 133.686 9.88086C133.041 10.2207 132.525 10.6895 132.139 11.2871C131.752 11.8848 131.471 12.5703 131.295 13.3438C131.131 14.1055 131.049 14.9141 131.049 15.7695ZM143.371 13.9766L141.191 14.6445C141.203 13.6016 141.373 12.5996 141.701 11.6387C142.041 10.6777 142.527 9.82227 143.16 9.07227C143.805 8.32227 144.596 7.73047 145.533 7.29688C146.471 6.85156 147.543 6.62891 148.75 6.62891C149.77 6.62891 150.672 6.76367 151.457 7.0332C152.254 7.30273 152.922 7.71875 153.461 8.28125C154.012 8.83203 154.428 9.54102 154.709 10.4082C154.99 11.2754 155.131 12.3066 155.131 13.502V26H151.861V13.4668C151.861 12.4004 151.691 11.5742 151.352 10.9883C151.023 10.3906 150.555 9.97461 149.945 9.74023C149.348 9.49414 148.633 9.37109 147.801 9.37109C147.086 9.37109 146.453 9.49414 145.902 9.74023C145.352 9.98633 144.889 10.3262 144.514 10.7598C144.139 11.1816 143.852 11.668 143.652 12.2188C143.465 12.7695 143.371 13.3555 143.371 13.9766ZM167.945 26.3516C166.621 26.3516 165.42 26.1289 164.342 25.6836C163.275 25.2266 162.355 24.5879 161.582 23.7676C160.82 22.9473 160.234 21.9746 159.824 20.8496C159.414 19.7246 159.209 18.4941 159.209 17.1582V16.4199C159.209 14.873 159.438 13.4961 159.895 12.2891C160.352 11.0703 160.973 10.0391 161.758 9.19531C162.543 8.35156 163.434 7.71289 164.43 7.2793C165.426 6.8457 166.457 6.62891 167.523 6.62891C168.883 6.62891 170.055 6.86328 171.039 7.33203C172.035 7.80078 172.85 8.45703 173.482 9.30078C174.115 10.1328 174.584 11.1172 174.889 12.2539C175.193 13.3789 175.346 14.6094 175.346 15.9453V17.4043H161.143V14.75H172.094V14.5039C172.047 13.6602 171.871 12.8398 171.566 12.043C171.273 11.2461 170.805 10.5898 170.16 10.0742C169.516 9.55859 168.637 9.30078 167.523 9.30078C166.785 9.30078 166.105 9.45898 165.484 9.77539C164.863 10.0801 164.33 10.5371 163.885 11.1465C163.439 11.7559 163.094 12.5 162.848 13.3789C162.602 14.2578 162.479 15.2715 162.479 16.4199V17.1582C162.479 18.0605 162.602 18.9102 162.848 19.707C163.105 20.4922 163.475 21.1836 163.955 21.7812C164.447 22.3789 165.039 22.8477 165.73 23.1875C166.434 23.5273 167.23 23.6973 168.121 23.6973C169.27 23.6973 170.242 23.4629 171.039 22.9941C171.836 22.5254 172.533 21.8984 173.131 21.1133L175.1 22.6777C174.689 23.2988 174.168 23.8906 173.535 24.4531C172.902 25.0156 172.123 25.4727 171.197 25.8242C170.283 26.1758 169.199 26.3516 167.945 26.3516Z" fill="#FCCB1E"/>
</svg>
