<?xml version="1.0" encoding="utf-8"?>
<!-- Svg Vector Icons : http://www.onlinewebfonts.com/icon -->
<!DOCTYPE svg PUBLIC "-//W3C//DTD SVG 1.1//EN" "http://www.w3.org/Graphics/SVG/1.1/DTD/svg11.dtd">
<svg version="1.1" xmlns="http://www.w3.org/2000/svg" xmlns:xlink="http://www.w3.org/1999/xlink" x="0px" y="0px" viewBox="0 0 1000 1000" enable-background="new 0 0 1000 1000" xml:space="preserve">
<metadata> Svg Vector Icons : http://www.onlinewebfonts.com/icon </metadata>
<g><g transform="translate(0.000000,512.000000) scale(0.100000,-0.100000)"><path d="M4799.7,4836c-563.6-534.9-1332.4-885.7-2214.2-1012.2c-490.8-70.9-1161.7-78.6-1520.2-19.2l-72.9,13.4l7.7-2298.6c7.7-2553.5,0-2407.8,139.9-2825.7C1494.7-2376,2572-3457.2,4186.2-4364c159.1-88.2,406.4-218.6,552.1-289.5L5001-4780l297.1,143.8c922.1,450.5,1800.1,1050.5,2432.8,1662.1c780.2,755.3,1186.7,1495.3,1257.6,2287.1c11.5,126.5,19.2,1098.5,19.2,2359.9V3818l-70.9-13.4c-358.5-59.4-1029.5-51.8-1520.2,19.2c-927.9,132.3-1744.5,521.4-2310.1,1098.5c-51.7,53.7-99.7,97.8-105.4,97.8C4995.2,5018.1,4905.1,4935.7,4799.7,4836z M5106.4,4506.2c577.1-529.1,1407.1-878,2396.3-1012.2c178.3-24.9,383.4-34.5,722.8-34.5l475.4-1.9V1483c0-1096.6-9.6-2057-19.2-2160.5c-63.2-649.9-391.1-1271-1014.1-1917.1C7081-3204.2,6181.9-3844.5,5255.9-4312.2l-255-128.5l-253.1,128.5c-492.7,249.2-1069.7,605.8-1510.6,931.7c-939.4,695.9-1564.3,1445.5-1800.1,2156.7c-130.4,387.2-122.7,249.2-130.4,2572.7l-7.7,2108.8l475.4,1.9c523.4,0,787.9,26.8,1226.9,122.7c523.4,113.1,1058.2,329.7,1449.3,586.6c193.6,126.5,431.3,310.6,500.4,389.2c21.1,21.1,40.3,40.3,46,40.3C5001,4598.2,5050.8,4556.1,5106.4,4506.2z"/><path d="M5691.1,419.1c-584.7-864.6-1069.7-1572-1077.4-1572c-7.7,0-314.4,214.7-682.5,475.4c-366.2,262.7-676.7,481.2-688.2,488.8c-17.3,11.5-178.3-195.5-178.3-232c0-17.3,1629.5-1180.9,1637.2-1169.4c42.2,53.7,2312,3414.3,2308.1,3418.1c-32.6,23-245.4,162.9-249.2,162.9C6757,1989.1,6275.8,1281.7,5691.1,419.1z"/></g></g>
</svg>